<svg width="76" height="63" viewBox="0 0 76 63" fill="none" xmlns="http://www.w3.org/2000/svg">
<path d="M38 61.3854C58.9868 61.3854 76 47.9633 76 31.4062C76 14.8491 58.9868 1.427 38 1.427C17.0132 1.427 0 14.8491 0 31.4062C0 47.9633 17.0132 61.3854 38 61.3854Z" fill="white"/>
<path d="M70.7144 38.5813C70.7144 39.3728 71.3917 40.0092 72.2215 40.0092C73.0569 40.0092 73.7286 39.3674 73.7286 38.5813C73.7286 37.7897 73.0513 37.1533 72.2215 37.1533C71.3917 37.1533 70.7144 37.7951 70.7144 38.5813Z" fill="#FFBB00"/>
<path d="M72.2292 40.3885C71.1793 40.3885 70.3213 39.5756 70.3213 38.5809C70.3213 37.5861 71.1736 36.7732 72.2292 36.7732C73.2791 36.7732 74.1371 37.5861 74.1371 38.5809C74.1314 39.581 73.2791 40.3885 72.2292 40.3885ZM72.2292 37.5273C71.6139 37.5273 71.1172 38.0033 71.1172 38.5809C71.1172 39.1638 71.6139 39.6344 72.2292 39.6344C72.8445 39.6344 73.3412 39.1638 73.3412 38.5809C73.3412 38.0033 72.8388 37.5273 72.2292 37.5273Z" fill="#76215D"/>
<path d="M68.4979 42.8225C67.7528 42.8225 67.1431 42.2449 67.1431 41.5389V27.2274C67.1431 26.5214 67.7528 25.9438 68.4979 25.9438H75.3054C75.3279 25.9438 75.3449 25.9438 75.3674 25.9492C71.5516 11.8409 56.2545 0.374512 38.3157 0.374512C20.0383 0.374512 4.47587 11.4291 1.03826 25.7032C0.993101 25.885 1.14551 26.0508 1.34307 26.0454C1.36001 26.0454 1.37694 26.0454 1.38823 26.0454H8.3199C9.07629 26.0454 9.6972 26.6177 9.6972 27.313V41.4373C9.6972 42.1326 9.07629 42.7048 8.3199 42.7048H3.09857C2.97438 42.7048 3.00261 42.8706 3.05906 42.9776C8.55698 54.4011 22.0139 62.4394 37.8924 62.4394C54.2676 62.4394 68.7124 54.5241 74.0692 42.8225H68.4979ZM35.6063 30.5913C35.849 31.1422 35.9732 31.7251 35.9732 32.3188C35.9732 33.3831 35.5724 34.4099 34.8499 35.2282C34.8104 35.2709 34.7991 35.3298 34.816 35.3833C34.9628 35.8271 35.0418 36.2817 35.0418 36.747C35.0418 37.9397 34.5564 39.0574 33.6702 39.9131C33.6307 39.9505 33.6137 39.9987 33.625 40.0468C33.721 40.7581 33.6363 41.4801 33.3766 42.1486L33.2299 42.5283C32.5638 44.2558 30.8761 45.411 28.9286 45.4751C28.923 45.4751 28.9117 45.4751 28.9061 45.4751C28.6577 45.5233 28.3811 45.5661 28.1045 45.5928C27.4949 45.657 26.8683 45.6837 26.2418 45.6837C20.535 45.6837 14.3202 43.3733 13.0558 42.8813C12.9655 42.8492 12.8752 42.8278 12.7792 42.8278H12.7002C11.7744 42.8278 11.0293 42.1165 11.0293 41.2448V27.4467C11.0293 26.5749 11.7801 25.8583 12.7058 25.8583C12.7397 25.8583 12.8187 25.8208 12.8469 25.7994C13.1517 25.6069 14.4387 24.7245 16.0813 22.5852C17.8143 20.323 18.9771 19.2266 19.1577 19.0608C19.169 19.0501 19.1746 19.0394 19.1859 19.0287C19.3101 18.8362 20.0608 17.5954 20.281 15.8626C20.439 14.6272 21.0656 11.782 23.4194 12.0334C25.3499 12.2366 26.1458 12.7714 26.174 12.7928C26.2418 12.8303 27.9634 13.8304 27.9634 16.8574C27.9634 20.1518 26.953 21.9862 26.3942 22.7457C26.3151 22.8526 26.3942 23.0024 26.5353 23.0024H31.9824C34.6072 23.0024 36.7465 25.0293 36.7465 27.5215C36.7465 28.5858 36.3514 29.6073 35.6289 30.4256C35.595 30.4737 35.5837 30.5379 35.6063 30.5913ZM65.9239 41.5817C65.9239 42.3786 65.2409 43.0204 64.4055 43.0204H64.0047C63.1185 43.3733 56.5311 45.9137 50.5083 45.9137C49.8704 45.9137 49.2382 45.8869 48.6173 45.8228C48.3351 45.7907 48.0528 45.7479 47.7932 45.6998C45.8175 45.6409 44.1015 44.4697 43.4242 42.7102L43.2774 42.3251C43.0065 41.6192 42.9218 40.8597 43.0347 40.1163C42.0977 39.2446 41.584 38.0894 41.584 36.854C41.584 36.3513 41.6687 35.8592 41.8437 35.3833C41.0704 34.549 40.6414 33.4793 40.6414 32.3669C40.6414 31.7251 40.7825 31.1048 41.0534 30.5218C40.2745 29.6822 39.8455 28.6125 39.8455 27.5001C39.8455 24.9758 42.013 22.9168 44.6717 22.9168H50.5421C50.0793 22.382 48.7471 20.4995 48.7471 16.6916C48.7471 13.6271 50.4913 12.611 50.5591 12.5736C50.5929 12.5522 51.4001 12.0067 53.3532 11.8034C55.7409 11.5521 56.3731 14.4347 56.5368 15.6862C56.7739 17.5099 57.5811 18.7934 57.6601 18.9111C57.7786 19.018 58.9753 20.1304 60.7929 22.4996C62.554 24.794 63.9652 25.6978 64.1628 25.8155H64.3942C65.2296 25.8155 65.9126 26.4626 65.9126 27.2595V41.5817H65.9239Z" fill="#FFBB00"/>
<path d="M37.8871 62.8136C30.1313 62.8136 22.6916 60.9097 16.3752 57.3104C10.1999 53.7913 5.46967 48.8871 2.69814 43.1272C2.64733 43.0202 2.54573 42.7475 2.69814 42.5282C2.78845 42.3998 2.93521 42.325 3.10455 42.325H8.32024C8.86213 42.325 9.30241 41.9239 9.30241 41.4318V27.3128C9.30241 26.8208 8.86213 26.4197 8.32024 26.4197H1.36035C1.14585 26.4304 0.936994 26.3395 0.795877 26.179C0.660405 26.0239 0.609603 25.8153 0.65476 25.6175C2.35381 18.5633 7.05018 12.0867 13.8803 7.3804C20.795 2.62058 29.4709 0 38.3161 0C46.9299 0 55.4759 2.6901 62.3737 7.57293C69.0965 12.3327 73.8494 18.82 75.746 25.8528L75.8814 26.3448L75.317 26.3234H68.5038C67.9732 26.3234 67.5443 26.7299 67.5443 27.2326V41.5441C67.5443 42.0469 67.9732 42.4533 68.5038 42.4533H74.6735L74.4308 42.9774C68.9949 54.8396 54.3075 62.8136 37.8871 62.8136ZM3.54484 43.0737C9.24032 54.6203 22.686 62.0595 37.8871 62.0595C53.7543 62.0595 67.9507 54.5026 73.4542 43.1967H68.4982C67.533 43.1967 66.7484 42.4533 66.7484 41.5388V27.2272C66.7484 26.3127 67.533 25.5693 68.4982 25.5693H74.8485C70.7391 11.3861 55.1372 0.748736 38.3161 0.748736C20.4845 0.748736 5.00117 11.2203 1.45066 25.6656H8.31459C9.29113 25.6656 10.0927 26.4036 10.0927 27.3075V41.4265C10.0927 42.3303 9.29677 43.0684 8.31459 43.0684H3.54484V43.0737ZM50.5086 46.2933C49.8369 46.2933 49.1877 46.2612 48.5781 46.2023C48.2902 46.1703 48.008 46.1275 47.754 46.0793C45.6316 45.9991 43.7858 44.737 43.0576 42.8491L42.9109 42.464C42.6399 41.7581 42.5439 41.004 42.6286 40.2552C41.7029 39.33 41.2005 38.132 41.2005 36.8592C41.2005 36.3886 41.2739 35.9233 41.4094 35.474C40.6643 34.5916 40.2522 33.5006 40.2522 32.3721C40.2522 31.7571 40.3707 31.1635 40.6022 30.5912C39.8627 29.7141 39.462 28.6284 39.462 27.5053C39.462 24.7725 41.8045 22.5476 44.6833 22.5476H49.7974C49.1765 21.5743 48.3636 19.7185 48.3636 16.6968C48.3636 13.5361 50.1361 12.3916 50.3562 12.2686C50.5086 12.167 51.3779 11.6428 53.3253 11.4396C55.2501 11.2364 56.571 12.7713 56.9435 15.6486C57.1524 17.2637 57.8467 18.4563 57.9878 18.6863C58.2418 18.9216 59.4103 20.0501 61.1319 22.2856C62.6729 24.2965 63.9373 25.2057 64.2986 25.4463H64.4114C65.467 25.4463 66.325 26.2592 66.325 27.2647V41.5869C66.325 42.587 65.467 43.4053 64.4114 43.4053H64.0954C63.0398 43.8117 56.4807 46.2933 50.5086 46.2933ZM44.6776 23.2964C42.2335 23.2964 40.2466 25.1843 40.2466 27.5C40.2466 28.5161 40.6417 29.5002 41.3529 30.2703L41.5223 30.4522L41.4207 30.6714C41.1723 31.2062 41.0425 31.7785 41.0425 32.3668C41.0425 33.3829 41.4376 34.367 42.1488 35.1371L42.3012 35.3029L42.2278 35.5061C42.0698 35.9393 41.9908 36.3939 41.9908 36.8538C41.9908 37.9876 42.4649 39.0519 43.3229 39.8488L43.464 39.9825L43.4358 40.1697C43.3286 40.8489 43.4076 41.5548 43.6559 42.1966L43.8027 42.5817C44.4236 44.1915 45.9985 45.2664 47.8104 45.3199L47.8782 45.3253C48.1209 45.3734 48.3918 45.4108 48.6684 45.4429C49.2442 45.5017 49.8651 45.5338 50.5086 45.5338C56.492 45.5338 63.1188 42.9614 63.8526 42.6672L63.926 42.6405H64.4058C65.0267 42.6405 65.5291 42.1645 65.5291 41.5762V27.2593C65.5291 26.671 65.0267 26.1951 64.4058 26.1951H64.0558L63.9599 26.1362C63.6946 25.9758 62.2665 25.0452 60.4828 22.7241C58.6821 20.3817 57.5193 19.3013 57.3951 19.189L57.3612 19.1569L57.333 19.1142C57.2371 18.9698 56.4016 17.6327 56.1533 15.7395C56.0065 14.6003 55.4421 11.9691 53.41 12.183C51.5698 12.3755 50.8134 12.8783 50.8078 12.8836L50.7739 12.905C50.7118 12.9424 49.1595 13.8516 49.1595 16.6968C49.1595 20.4137 50.4634 22.2214 50.8642 22.6867L51.3892 23.3017H44.6776V23.2964ZM26.2421 46.0686C20.445 46.0686 14.1173 43.7101 12.9037 43.2395C12.8642 43.2234 12.8191 43.2181 12.7739 43.2181H12.7005C11.5603 43.2181 10.6346 42.341 10.6346 41.2607V27.4465C10.6346 26.3876 11.5264 25.5212 12.6328 25.4838C12.8755 25.3287 14.1456 24.4676 15.7599 22.3658C17.4533 20.1624 18.5992 19.0553 18.8589 18.8093C18.9943 18.5954 19.6773 17.4188 19.8862 15.8144C20.2531 12.9692 21.557 11.4557 23.4649 11.6535C25.3785 11.8568 26.2477 12.3755 26.3945 12.4718C26.609 12.5948 28.3589 13.7233 28.3589 16.8466C28.3589 19.8201 27.5573 21.6545 26.9477 22.6172H31.9884C34.8333 22.6172 37.1476 24.8152 37.1476 27.516C37.1476 28.6231 36.7469 29.6981 36.0187 30.5645C36.2501 31.126 36.363 31.7143 36.363 32.3186C36.363 33.4311 35.9566 34.5114 35.2228 35.3778C35.3583 35.8217 35.4316 36.2816 35.4316 36.7415C35.4316 37.9983 34.9349 39.1856 34.0205 40.0948C34.0995 40.8275 34.0035 41.5816 33.7382 42.2715L33.5915 42.6512C32.8746 44.5177 31.057 45.7691 28.9572 45.844C28.7032 45.8922 28.4266 45.9349 28.1444 45.967C27.546 46.0366 26.9025 46.0686 26.2421 46.0686ZM23.1488 12.3916C21.3312 12.3916 20.8119 14.825 20.6708 15.9106C20.4394 17.7023 19.6717 18.9858 19.5193 19.2265C19.4911 19.2693 19.4628 19.3013 19.429 19.3334C19.3048 19.4511 18.1363 20.5421 16.3978 22.8097C14.7439 24.965 13.4287 25.8849 13.0618 26.1148C13.0166 26.1416 12.8586 26.2378 12.7005 26.2378C11.9949 26.2378 11.4248 26.778 11.4248 27.4465V41.25C11.4248 41.9185 11.9949 42.4587 12.7005 42.4587H12.7739C12.9207 42.4587 13.0674 42.4854 13.2029 42.5389C14.3883 43.0042 20.5918 45.3146 26.2365 45.3146C26.8687 45.3146 27.4839 45.2878 28.0597 45.229C28.325 45.2022 28.5903 45.1595 28.8217 45.1167C28.85 45.1113 28.8725 45.106 28.9008 45.106C30.6901 45.0471 32.2368 43.9882 32.8464 42.4052L32.9931 42.0255C33.2302 41.4158 33.3092 40.7473 33.2189 40.1001C33.1964 39.9344 33.2528 39.7739 33.377 39.6563C34.1898 38.8754 34.6357 37.8432 34.6357 36.7522C34.6357 36.3297 34.568 35.9072 34.4325 35.5008C34.3704 35.3243 34.4156 35.1318 34.5398 34.9927C35.2059 34.244 35.5728 33.2974 35.5728 32.324C35.5728 31.7785 35.4599 31.2437 35.2397 30.741C35.1551 30.5538 35.1889 30.3452 35.33 30.1901C35.9905 29.4414 36.3574 28.5001 36.3574 27.5267C36.3574 25.2431 34.3987 23.382 31.9884 23.382H26.5413C26.3268 23.382 26.1349 23.2696 26.0333 23.0932C25.9373 22.9167 25.9486 22.7027 26.0728 22.5369C26.6316 21.7722 27.5686 20.0233 27.5686 16.8626C27.5686 14.0602 26.0389 13.1617 25.9768 13.1243L25.9429 13.1029C25.9373 13.0975 25.1866 12.6002 23.3746 12.413C23.3012 12.3969 23.2222 12.3916 23.1488 12.3916Z" fill="#76215D"/>
<path d="M3.14844 38.5813C3.14844 39.3728 3.8258 40.0092 4.65557 40.0092C5.48534 40.0092 6.16834 39.3674 6.16834 38.5813C6.16834 37.7897 5.49098 37.1533 4.65557 37.1533C3.82015 37.1533 3.14844 37.7951 3.14844 38.5813Z" fill="#FFBB00"/>
<path d="M4.65741 40.3885C3.6075 40.3885 2.74951 39.5756 2.74951 38.5809C2.74951 37.5861 3.60186 36.7732 4.65741 36.7732C5.70732 36.7732 6.56532 37.5861 6.56532 38.5809C6.56532 39.581 5.71297 40.3885 4.65741 40.3885ZM4.65741 37.5273C4.04214 37.5273 3.54541 38.0033 3.54541 38.5809C3.54541 39.1638 4.04214 39.6344 4.65741 39.6344C5.27268 39.6344 5.76942 39.1638 5.76942 38.5809C5.77506 38.0033 5.27268 37.5273 4.65741 37.5273Z" fill="#76215D"/>
</svg>
