<svg width="156" height="156" viewBox="0 0 156 156" fill="none" xmlns="http://www.w3.org/2000/svg">
<path d="M76.0927 155.4C75.9513 152.816 75.81 150.232 75.6687 147.612C75.2095 136.674 75.916 125.524 74.0437 114.798C70.4405 94.0188 52.7774 80.1425 31.6876 79.9655C23.5273 79.8947 15.3669 79.9655 7.20655 79.9301C4.83969 79.9301 2.50816 79.5761 0.141305 79.3637C0.105979 78.585 0.0353262 77.8062 0 77.0274C1.90762 76.638 3.7799 75.9301 5.68752 75.8947C14.6251 75.7531 23.5626 76.0717 32.4648 75.6823C57.4051 74.5849 75.1388 56.1776 75.6334 31.1154C75.7747 22.9383 75.6334 14.7612 75.7041 6.58415C75.7041 4.46023 76.0927 2.33631 76.3046 0.176993C77.0111 0.106196 77.7177 0.0707973 78.4242 0C78.7774 2.44251 79.3073 4.84961 79.4133 7.29212C79.8372 17.4869 79.3427 27.7879 80.6144 37.8765C83.2992 59.6467 100.185 74.6911 122.052 75.5407C130.954 75.8947 139.927 75.6469 148.829 75.8239C151.02 75.8593 153.21 76.5672 155.4 76.9566C155.329 77.7 155.259 78.4434 155.223 79.1867C153.139 79.4345 151.055 79.8593 148.971 79.8947C141.835 80.0009 134.628 80.4611 127.528 79.8593C102.163 77.7 79.484 97.0277 79.4486 127.506C79.4486 135.187 79.4486 142.833 79.378 150.515C79.378 152.143 78.8481 153.772 78.5655 155.4C77.7177 155.4 76.9052 155.4 76.0573 155.4H76.0927Z" fill="white"/>
</svg>
